<svg width="1280" height="480" viewBox="0 0 1280 480" fill="none" xmlns="http://www.w3.org/2000/svg">
<g clip-path="url(#clip0_2899_111)">
<rect width="1280" height="480" rx="24" fill="white"/>
<line x1="78.209" y1="-2.18557e-08" x2="78.209" y2="979.125" stroke="#262D54" stroke-opacity="0.26"/>
<line x1="389.041" y1="-2.18557e-08" x2="389.041" y2="979.125" stroke="#262D54" stroke-opacity="0.26"/>
<line x1="699.875" y1="-2.18557e-08" x2="699.875" y2="979.125" stroke="#262D54" stroke-opacity="0.26"/>
<line x1="1010.71" y1="-2.18557e-08" x2="1010.71" y2="979.125" stroke="#262D54" stroke-opacity="0.26"/>
<line x1="155.916" y1="-2.18557e-08" x2="155.916" y2="979.125" stroke="#262D54" stroke-opacity="0.26"/>
<line x1="466.75" y1="-2.18557e-08" x2="466.75" y2="979.125" stroke="#262D54" stroke-opacity="0.26"/>
<line x1="777.584" y1="-2.18557e-08" x2="777.584" y2="979.125" stroke="#262D54" stroke-opacity="0.26"/>
<line x1="1088.42" y1="-2.18557e-08" x2="1088.42" y2="979.125" stroke="#262D54" stroke-opacity="0.26"/>
<line x1="233.625" y1="-2.18557e-08" x2="233.625" y2="979.125" stroke="#262D54" stroke-opacity="0.26"/>
<line x1="544.459" y1="-2.18557e-08" x2="544.459" y2="979.125" stroke="#262D54" stroke-opacity="0.26"/>
<line x1="855.291" y1="-2.18557e-08" x2="855.291" y2="979.125" stroke="#262D54" stroke-opacity="0.26"/>
<line x1="1166.12" y1="-2.18557e-08" x2="1166.12" y2="979.125" stroke="#262D54" stroke-opacity="0.26"/>
<line x1="311.334" y1="-2.18557e-08" x2="311.334" y2="979.125" stroke="#262D54" stroke-opacity="0.26"/>
<line x1="622.166" y1="-2.18557e-08" x2="622.166" y2="979.125" stroke="#262D54" stroke-opacity="0.26"/>
<line x1="933" y1="-2.18557e-08" x2="933" y2="979.125" stroke="#262D54" stroke-opacity="0.26"/>
<line x1="1243.83" y1="-2.18557e-08" x2="1243.83" y2="979.125" stroke="#262D54" stroke-opacity="0.26"/>
<line x1="4.37114e-08" y1="77.207" x2="1865" y2="77.2072" stroke="#262D54" stroke-opacity="0.26"/>
<line x1="4.37114e-08" y1="154.918" x2="1865" y2="154.918" stroke="#262D54" stroke-opacity="0.26"/>
<line x1="4.37114e-08" y1="232.625" x2="1865" y2="232.625" stroke="#262D54" stroke-opacity="0.26"/>
<line x1="4.37114e-08" y1="310.332" x2="1865" y2="310.332" stroke="#262D54" stroke-opacity="0.26"/>
<line x1="4.37114e-08" y1="388.043" x2="1865" y2="388.043" stroke="#262D54" stroke-opacity="0.26"/>
<line x1="4.37114e-08" y1="465.75" x2="1865" y2="465.75" stroke="#262D54" stroke-opacity="0.26"/>
<path d="M1074.65 -197L1084.24 -194.441L1090 -190.603L1093.2 -186.764L1098.32 -183.565L1102.16 -182.926L1105.36 -172.05L1106.63 -157.976L1104.08 -152.218L1097.04 -150.939L1075.29 -138.144L1074.65 -125.988V-120.23L1075.29 -116.392L1077.85 -113.193V-108.075L1075.29 -102.958L1065.69 -94.0009L1059.3 -86.9638L1051.62 -77.3676L1047.14 -76.0877L1043.94 -74.1689L1040.74 -79.2864L1024.11 -88.243L985.728 -93.3613L967.175 -100.398L958.859 -99.1192L943.506 -106.796L932.631 -103.597L910.241 -90.1626L898.085 -91.4417L885.291 -99.7588L876.976 -101.038L866.739 -96.56L850.746 -81.2059L834.753 -73.5293L820.039 -76.728H800.209L798.29 -67.7714L802.127 -62.0135L813.003 -51.7777L807.885 -44.1003L811.723 -36.4237L818.76 -35.1445L828.997 -35.7841L848.188 -25.5483L856.503 -15.3117L862.262 -3.79672L850.106 -12.113L842.43 -19.7904L831.555 -22.3495L816.202 -29.3866L806.606 -30.6658L796.37 -26.1879L795.73 -21.0696L806.606 -10.8338L816.841 -4.43631L821.959 0.681976L825.798 11.5574L823.878 15.3957L820.039 18.5944L807.885 11.5574L789.973 -12.7533L764.384 -17.8708L759.906 -12.7533L765.024 0.0416107L768.862 5.1599L791.252 19.234L789.333 22.4328L786.134 23.7127L761.185 15.3957L754.148 3.24034L752.23 -12.113L729.199 -22.9891L707.449 -34.5041L702.331 -45.3803L706.809 -49.2186L710.008 -57.5356L698.492 -56.2557L690.816 -51.1382L678.662 -46.0199L678.022 -37.7028L679.941 -30.0262L676.102 -19.1508L672.265 0.0416107L674.823 10.2782L701.052 39.0668L710.008 60.178L716.405 67.8554L729.84 76.8112L743.913 92.8049L749.67 101.122L754.148 114.556L742.634 122.874L735.597 123.513L731.758 119.675L736.876 110.079L736.237 104.321L718.324 95.3641L710.648 98.5628L701.691 104.321L706.809 115.196L712.566 122.234L715.126 131.83L726.001 131.19L711.287 142.066L697.854 147.824L684.419 148.463L676.102 149.743L672.904 152.302L679.941 154.221H685.698L694.655 159.978L720.883 167.016L733.677 175.972L745.833 176.612L757.987 192.606L779.098 197.084L791.252 213.717L807.245 216.916L821.319 222.674L825.158 228.432L827.077 238.668L827.716 260.419L830.914 276.413V281.53L830.276 289.208L826.437 293.046H821.319L811.084 280.891L795.73 268.096L779.737 253.382L775.259 250.823H771.422L762.465 255.94L738.155 259.78L726.641 265.537L722.162 266.817L720.883 269.376L726.001 272.574L732.398 279.612V289.208L737.516 300.723L744.552 303.921H753.509L758.627 305.841L759.906 310.319L765.024 315.437L768.223 319.276V321.835L742.634 329.511L737.516 332.71L733.038 334.63L726.641 331.431L726.001 322.474L717.045 317.357L709.367 312.878L699.772 310.959L691.456 304.562L686.338 309.679L690.816 326.953L699.772 339.108L715.126 371.095L722.162 390.287L723.443 399.244L720.244 414.598L727.92 426.114L733.038 437.629L727.28 436.989L722.162 433.151L713.847 428.033L697.854 409.48L692.095 397.965L685.698 397.325L674.183 399.244L661.388 423.555V437.629L654.991 434.43L649.234 429.952L649.875 414.598L649.234 408.201L633.882 387.089L626.844 384.53L623.645 377.492L617.889 369.816L610.851 371.095L605.094 374.294L603.175 385.809L602.534 396.045L598.057 403.723L581.423 389.008L564.791 363.418L564.151 349.344L576.307 336.549L575.026 327.593L563.512 309.679L546.879 298.164L537.283 294.966L532.805 282.81L523.848 276.413L516.812 273.214L515.533 268.735L517.451 265.537L534.725 252.742L544.959 232.91L550.077 232.27L560.314 236.748L571.827 235.469L581.423 223.953L589.74 217.556L603.175 218.196L633.882 234.19L667.147 243.145L683.779 250.823L693.374 258.5L698.492 260.419L706.169 261.698L705.53 255.94L702.97 250.823L709.367 248.264H727.28L730.479 245.705L733.677 241.227L729.84 236.108L724.081 233.549L717.684 232.91L713.847 230.991L706.809 232.91L696.573 229.071L690.816 225.873L687.617 222.674L669.705 216.276L652.433 205.401L648.594 211.798L641.558 214.997L631.322 215.637L603.175 208.6L585.902 213.717L576.307 214.997H569.269L560.314 217.556L550.077 218.836L541.122 208.6L537.283 200.922L534.725 199.643V207.32L532.165 213.078L519.37 216.276L511.694 211.798L505.937 197.724L498.9 179.811L486.105 165.097L475.869 161.258L475.23 152.941L475.869 146.544L488.025 144.625L507.216 151.023L511.054 149.743L515.533 146.544L514.893 139.507L512.334 133.109H507.216L503.377 133.749L491.223 132.47L475.869 135.668L468.833 132.47L466.273 128.631L453.479 119.035L442.604 106.24L424.691 97.2836L413.178 71.0541L403.582 59.5384L393.346 51.2214H395.904L399.743 52.5013L407.419 56.9792L415.736 58.2592L420.214 55.0605L422.774 52.5013L424.691 48.0226L425.332 42.9051L426.611 40.9856L433.008 41.6252L434.928 40.346V35.8681L431.089 30.1102L427.89 23.0731V19.8744L431.089 18.5944L436.207 15.3957L438.767 11.5574L443.883 9.63782L451.561 8.99821L459.876 7.07945L465.635 2.60075L466.273 -1.87717L469.472 -13.3929L472.032 -19.1508L475.869 -24.2683L477.789 -31.3054L481.628 -37.7028L489.944 -40.262L496.98 -43.4607L502.739 -51.7777L505.937 -58.8148V-63.2927L501.458 -70.3306L498.259 -77.3676L498.9 -86.3242L513.614 -86.9638L518.732 -87.6034L537.283 -88.243L545.6 -93.3613L551.357 -92.7217L563.512 -88.243L569.269 -91.4417L585.262 -97.8392L601.255 -117.032L608.293 -120.23L623.645 -121.51L628.763 -123.429L634.52 -122.79L651.792 -118.951L661.388 -118.312L672.904 -120.87L685.698 -125.349L688.897 -141.982L692.095 -144.541L700.412 -145.181H706.809L718.324 -143.901L732.398 -143.261L741.353 -150.939L755.429 -151.578L761.826 -152.857L772.701 -151.578H783.576L797.01 -154.777L809.805 -159.895L819.401 -159.255L823.238 -160.535L825.798 -161.814L828.356 -168.851L846.907 -169.491L853.305 -168.851H863.541L874.416 -172.69L877.614 -172.05L883.373 -161.174L885.931 -157.976L891.688 -155.416L904.482 -147.74L907.042 -149.659L912.799 -152.218L928.153 -148.379L942.866 -141.982L955.66 -133.025L969.735 -135.584L985.088 -140.062L995.324 -141.342L1006.2 -141.982L1012.6 -143.901L1027.31 -141.342L1042.66 -146.46L1049.7 -150.939L1051.62 -157.336L1050.34 -168.211L1047.14 -179.088L1043.3 -182.926L1042.02 -186.764L1043.94 -190.603L1046.5 -193.162L1056.74 -195.721L1074.65 -197ZM909.6 -60.094L896.167 -55.6161L882.092 -63.9331V-69.0506L889.13 -79.2864L892.969 -82.4851L903.203 -81.8455L908.962 -74.8085L910.241 -71.6097L908.321 -65.8519L909.6 -60.094ZM1006.84 -37.0632L994.684 -33.8645L981.249 -44.1003L994.043 -47.9394L999.802 -44.7407L1004.28 -41.5419L1006.84 -37.0632ZM980.61 17.3152L976.771 21.1536L973.573 28.1906L972.293 38.4264H965.896L962.057 36.5077L960.778 32.6693V27.551H958.22L956.3 32.6693L954.381 35.2277L947.984 35.8681L940.948 32.6693L941.586 25.6315L940.307 17.3152L940.948 14.7561L959.499 14.1165L965.256 19.8744L971.653 16.6757L974.213 12.8365L982.53 10.2782L980.61 17.3152ZM408.06 83.8491L410.618 90.8861L397.185 86.4074L387.589 80.6504L379.272 65.9359L362 48.663V43.5447L368.397 39.7064L382.471 37.1472L388.228 39.7064L392.067 42.2655L393.346 45.4643L385.669 51.8617L383.75 55.0605L390.147 60.8176V63.3767L392.705 74.8925L395.904 79.3704L403.582 82.5691L408.06 83.8491ZM1084.24 96.644L1082.33 103.681L1097.04 115.836L1102.16 123.513L1104.08 130.55L1102.8 132.47L1097.04 128.631L1092.56 127.351L1093.84 132.47L1098.32 136.948L1090 139.507H1081.69L1057.38 133.109L1051.62 126.712L1066.33 116.476L1069.53 112.638L1059.3 113.277L1048.42 125.433L1030.51 120.314L1024.75 115.836L1023.47 113.277L1030.51 103.042L1043.3 103.681L1049.7 101.122L1058.02 97.9232V92.8049L1077.21 91.5257L1084.24 96.644ZM814.921 117.116L809.805 118.395L814.921 108.799L823.878 103.681L820.68 111.997L814.921 117.116ZM803.408 122.234L798.928 126.072L791.252 124.153L783.576 110.718L803.408 122.234ZM764.384 141.426L770.141 154.221L775.899 158.699L788.053 163.817L793.812 164.457L814.283 174.053L837.952 175.972L841.151 178.531L844.349 185.568L848.827 191.326L850.106 195.805L847.548 200.922L850.746 215.637L856.503 229.711L865.46 236.748L876.335 238.668H887.21L889.77 241.227L888.489 253.382L884.012 258.5L880.174 259.78L876.976 258.5L873.777 255.94L870.578 254.661H864.181L859.702 249.543L848.188 242.506L846.269 238.668L845.628 232.27L841.151 227.792L836.673 218.836L832.195 216.276L829.635 211.798V209.879L813.003 208.6H799.569L788.053 203.481L784.216 190.687L777.178 187.488L772.06 183.649L767.583 178.531L756.708 168.935L744.552 161.258L733.038 156.14L720.883 152.941L710.648 156.78L704.89 156.14L703.611 153.581L715.765 147.824L733.038 137.587L745.192 134.388L750.949 133.749L764.384 141.426ZM898.726 159.339L887.21 162.538L884.012 161.898L886.571 158.06V156.78L875.056 149.743L876.335 140.786L877.614 138.867L885.931 143.345L887.851 151.023L898.726 159.339ZM473.311 183.01L469.472 183.649L465.635 183.01L462.436 183.649L459.237 186.209L459.876 176.612L463.715 165.097L468.193 158.06L473.311 155L474.59 163L476.509 179.171L473.311 183.01ZM1050.34 229.711L1040.1 236.108L1028.59 226.512L1026.67 223.313L1034.99 219.475L1038.82 213.717L1035.63 206.041L1024.11 195.164L1023.47 187.488L1041.38 184.289L1051.62 191.326L1056.74 191.966L1054.82 198.363L1055.46 200.283L1056.1 220.115L1050.98 222.674L1050.34 227.792V229.711ZM480.987 216.276L475.869 217.556L469.472 206.041L466.914 198.363L469.472 197.724L472.032 198.363L474.59 201.562V204.761L475.869 207.959L479.068 211.798L480.987 216.276ZM464.994 209.879L466.273 223.953L473.951 226.512L484.186 238.668L483.547 245.065L481.628 246.985L464.994 241.227L461.157 243.786L456.039 242.506L452.84 235.469L453.479 232.91L450.921 229.071L448.362 227.152L441.965 232.91L438.126 234.19V229.071L443.883 215.637L446.443 213.078L451.561 217.556L455.398 215.637L458.597 207.959V200.283L459.876 198.363L464.994 209.879ZM779.098 264.257L774.62 267.456H770.141L766.942 266.177L765.024 263.618L766.942 262.338L769.502 257.86L772.06 256.581L775.259 257.22L777.178 259.139L779.098 264.257ZM932.631 284.089L929.432 291.767L921.116 282.81L912.16 276.413L908.962 270.655L903.203 267.456L901.924 259.78L908.962 256.581H912.16L919.196 265.537L930.071 266.817L929.432 272.574L932.631 279.612V284.089ZM494.422 278.332L505.937 289.847L496.98 287.288L487.384 294.966L475.23 285.369L468.193 275.773L466.273 271.934L473.951 262.978L480.987 271.934L489.944 273.214L494.422 278.332ZM1128.38 277.692L1141.82 281.53L1145.66 280.891L1152.06 282.171L1153.97 289.208L1145.66 290.487L1131.58 296.884L1125.83 295.605L1118.79 289.847L1107.28 289.208L1104.08 287.928L1110.47 280.891L1121.35 277.692H1128.38ZM864.82 305.201L857.784 310.959L856.503 302.642L860.983 293.686L867.38 293.046L869.938 296.884L864.82 305.201ZM960.778 302.642L956.941 310.319L950.544 309.04L939.667 300.723L935.83 296.884L933.91 293.046L938.388 292.406L944.146 296.245L958.22 298.164L960.778 302.642ZM1043.3 310.959L1038.19 311.599L1039.46 307.12L1049.06 298.804L1062.49 298.164L1074.65 294.325H1077.21L1071.45 300.723L1061.85 306.481L1043.3 310.959ZM976.771 323.754L966.537 324.394L967.175 315.437L971.014 312.878L983.168 317.357L982.53 319.915L976.771 323.754ZM927.513 315.437L926.873 327.593H924.314L922.395 325.673V321.195L923.674 314.158L927.513 315.437ZM873.137 332.71L866.739 336.549L868.659 328.232L865.46 323.754L868.019 319.915L871.858 316.716L873.777 319.915L876.976 325.033L873.137 332.71ZM882.732 358.3L878.893 360.219L872.496 357.66L874.416 351.263L878.893 348.704L884.012 350.623L884.652 353.822L882.732 358.3ZM992.125 376.853L982.53 381.331L976.132 374.934L972.293 364.697L989.566 349.984L994.043 351.263L996.603 355.101L995.963 368.536L992.125 376.853ZM963.338 365.338L955.021 374.294L947.984 373.014L944.785 369.176L949.263 360.859L958.859 355.742L963.338 357.021L962.698 363.418L963.338 365.338ZM1149.5 378.133L1138.62 380.051L1140.54 370.455L1135.42 363.418L1143.74 367.257L1148.86 372.375L1151.42 373.014L1150.78 376.213L1149.5 378.133ZM903.844 382.611L901.924 383.25L899.366 378.133L898.726 373.654L900.005 371.095H903.844L908.962 380.051L903.844 382.611ZM1025.39 397.325L1015.79 398.604L1012.6 397.965L1018.35 396.045L1022.19 394.126L1024.11 391.567L1033.71 387.089L1040.1 381.331L1047.14 385.17L1038.82 387.729L1025.39 397.325ZM1141.82 405.002H1138.62L1142.46 399.244L1153.97 391.567L1170.61 384.53L1176.36 383.89L1185.32 388.369L1168.05 395.406L1163.57 399.244L1150.78 399.883L1141.82 405.002ZM974.213 411.399L972.293 413.319L963.977 406.281L960.778 401.803L964.617 397.965L976.771 406.281L974.213 411.399ZM884.012 400.524V407.561L883.373 410.12L861.621 413.319L863.541 405.641L864.82 403.082L871.858 406.921L874.416 405.002L875.695 403.082L884.012 400.524ZM1239.06 424.834L1236.5 426.753L1231.38 421.635V419.076L1237.14 415.877L1239.7 415.238L1240.34 417.157V421.635L1239.06 424.834ZM1089.36 421.635L1081.05 424.194L1075.93 429.952L1069.53 426.114V420.356L1076.57 422.275L1081.69 419.076L1080.41 415.238L1086.16 417.157L1089.36 421.635ZM985.088 444.026L979.97 450.424L972.934 448.505L975.492 445.946L977.412 442.747V438.268L975.492 435.71L976.771 434.43L983.168 438.909L985.088 444.026ZM1237.14 497.125L1229.46 499.685H1226.9L1223.7 494.566L1228.18 481.771L1224.34 473.454V470.256L1230.74 465.138L1235.22 458.101L1246.09 450.424L1273.6 440.827L1280 440.188V447.225L1271.04 465.778L1262.73 475.374L1264.65 483.051L1251.85 484.97L1237.14 497.125ZM726.001 467.057L724.722 472.175L713.847 468.976L710.648 463.858L710.008 452.343L713.206 446.585L715.126 444.666L720.244 451.063L731.119 460.659L726.001 467.057ZM1166.13 550.864L1162.29 557.262L1158.45 551.504L1160.37 545.107L1155.89 534.871L1164.85 520.156V513.119L1171.89 509.281L1169.97 521.435L1164.85 531.032L1170.61 539.349L1173.17 548.305L1166.13 550.864ZM811.084 542.547L818.12 543.187H827.716L830.276 542.547L836.673 536.15H844.349L847.548 542.547L839.871 545.746L838.592 547.666L839.871 548.945L845.628 551.504L853.945 550.224V555.342L855.865 559.82L859.702 562.379L864.181 563.019L873.777 562.379L883.373 560.461L892.969 557.262L903.203 555.342L933.27 557.262L944.146 564.299L964.617 564.939L983.809 568.777L994.043 566.218L1011.32 563.659L1013.88 566.218L1011.96 582.211L1013.23 586.69L1018.35 589.249L1023.47 587.969L1029.23 582.852L1043.3 579.013H1058.02L1070.81 568.137L1074.65 567.498L1072.09 572.615L1070.17 585.41L1067.61 592.448L1066.33 598.205L1058.02 601.404L1045.22 602.044L1022.19 600.764L998.523 602.684L955.021 608.442L911.52 611L905.763 609.081V602.044L905.123 596.926L902.564 593.727L889.13 590.528L876.335 585.41L826.437 578.373L814.921 575.814L795.73 577.094H788.694L783.576 574.535L780.377 570.057L779.098 555.982L781.656 542.547L785.495 538.709L787.415 542.547L792.531 544.467L797.01 540.628V534.23L799.569 528.473L803.408 531.032L805.966 539.988L811.084 542.547Z" fill="#262D54" fill-opacity="0.1" stroke="#262D54"/>
<rect x="0.5" y="0.5" width="1279" height="479" rx="23.5" stroke="#3D444D"/>
<g style="mix-blend-mode:plus-darker" filter="url(#filter0_f_2899_111)">
<circle cx="903" cy="418" r="263" fill="#176FC1" fill-opacity="0.2"/>
</g>
<path d="M92.4 209.576C89.968 209.576 87.824 208.936 85.968 207.656C84.112 206.376 82.656 204.52 81.6 202.088C80.576 199.656 80.064 196.68 80.064 193.16C80.064 189.736 80.576 186.824 81.6 184.424C82.656 181.992 84.112 180.152 85.968 178.904C87.824 177.656 89.968 177.032 92.4 177.032C94.832 177.032 96.976 177.656 98.832 178.904C100.688 180.152 102.128 181.992 103.152 184.424C104.208 186.824 104.736 189.736 104.736 193.16C104.736 196.68 104.208 199.656 103.152 202.088C102.128 204.52 100.688 206.376 98.832 207.656C96.976 208.936 94.832 209.576 92.4 209.576ZM92.4 204.728C93.744 204.728 94.912 204.28 95.904 203.384C96.896 202.488 97.664 201.176 98.208 199.448C98.752 197.72 99.024 195.624 99.024 193.16C99.024 190.76 98.752 188.728 98.208 187.064C97.664 185.368 96.896 184.088 95.904 183.224C94.912 182.328 93.744 181.88 92.4 181.88C91.056 181.88 89.888 182.328 88.896 183.224C87.904 184.088 87.136 185.368 86.592 187.064C86.048 188.728 85.776 190.76 85.776 193.16C85.776 195.624 86.048 197.72 86.592 199.448C87.136 201.176 87.904 202.488 88.896 203.384C89.888 204.28 91.056 204.728 92.4 204.728ZM109.757 218.312V185.432H114.317L114.749 188.12H114.893C115.917 187.16 117.085 186.376 118.397 185.768C119.741 185.16 121.085 184.856 122.429 184.856C124.509 184.856 126.253 185.352 127.661 186.344C129.069 187.336 130.157 188.728 130.925 190.52C131.693 192.312 132.077 194.424 132.077 196.856C132.077 199.544 131.581 201.832 130.589 203.72C129.597 205.608 128.301 207.064 126.701 208.088C125.133 209.08 123.437 209.576 121.613 209.576C120.557 209.576 119.453 209.336 118.301 208.856C117.181 208.376 116.141 207.688 115.181 206.792H115.037L115.325 210.92V218.312H109.757ZM120.461 205.016C121.581 205.016 122.589 204.712 123.485 204.104C124.381 203.496 125.085 202.6 125.597 201.416C126.109 200.2 126.365 198.696 126.365 196.904C126.365 195.336 126.173 193.992 125.789 192.872C125.405 191.752 124.813 190.904 124.013 190.328C123.245 189.72 122.205 189.416 120.893 189.416C119.997 189.416 119.085 189.64 118.157 190.088C117.229 190.536 116.285 191.256 115.325 192.248V202.856C116.189 203.624 117.085 204.184 118.013 204.536C118.941 204.856 119.757 205.016 120.461 205.016ZM149.483 209.576C147.083 209.576 144.907 209.096 142.955 208.136C141.003 207.144 139.451 205.736 138.299 203.912C137.147 202.056 136.571 199.816 136.571 197.192C136.571 194.632 137.147 192.44 138.299 190.616C139.451 188.76 140.955 187.336 142.811 186.344C144.667 185.352 146.651 184.856 148.763 184.856C151.099 184.856 153.067 185.336 154.667 186.296C156.299 187.256 157.531 188.584 158.363 190.28C159.227 191.944 159.659 193.864 159.659 196.04C159.659 196.584 159.627 197.112 159.563 197.624C159.531 198.104 159.483 198.504 159.419 198.824H140.555V194.888H155.867L154.811 196.136C154.811 193.8 154.283 192.056 153.227 190.904C152.203 189.72 150.763 189.128 148.907 189.128C147.595 189.128 146.411 189.432 145.355 190.04C144.331 190.648 143.515 191.56 142.907 192.776C142.299 193.96 141.995 195.432 141.995 197.192C141.995 199.016 142.331 200.52 143.003 201.704C143.707 202.888 144.667 203.784 145.883 204.392C147.131 205 148.571 205.304 150.203 205.304C151.451 205.304 152.603 205.128 153.659 204.776C154.715 204.424 155.771 203.944 156.827 203.336L158.699 206.792C157.451 207.592 156.043 208.264 154.475 208.808C152.907 209.32 151.243 209.576 149.483 209.576ZM165.4 209V185.432H169.96L170.392 188.984H170.584C171.704 187.832 172.936 186.856 174.28 186.056C175.656 185.256 177.256 184.856 179.08 184.856C181.8 184.856 183.8 185.688 185.08 187.352C186.36 189.016 187 191.368 187 194.408V209H181.432V195.128C181.432 193.24 181.096 191.848 180.424 190.952C179.752 190.056 178.616 189.608 177.016 189.608C175.864 189.608 174.84 189.88 173.944 190.424C173.048 190.968 172.056 191.8 170.968 192.92V209H165.4ZM231.65 209.576C229.442 209.576 227.33 209.224 225.314 208.52C223.298 207.784 221.554 206.92 220.082 205.928L222.482 202.424C223.89 203.352 225.41 204.088 227.042 204.632C228.674 205.144 230.45 205.4 232.37 205.4C234.002 205.4 235.202 205.128 235.97 204.584C236.77 204.008 237.17 203.336 237.17 202.568C237.17 202.184 237.074 201.832 236.882 201.512C236.722 201.192 236.418 200.904 235.97 200.648C235.522 200.36 234.866 200.088 234.002 199.832C233.138 199.576 232.018 199.304 230.642 199.016C227.506 198.344 225.202 197.432 223.73 196.28C222.258 195.128 221.522 193.672 221.522 191.912C221.522 189.832 222.418 188.136 224.21 186.824C226.034 185.512 228.594 184.856 231.89 184.856C233.842 184.856 235.666 185.176 237.362 185.816C239.09 186.456 240.546 187.176 241.73 187.976L239.186 191.384C238.066 190.616 236.834 190.04 235.49 189.656C234.146 189.24 232.786 189.032 231.41 189.032C230.354 189.032 229.506 189.144 228.866 189.368C228.258 189.592 227.794 189.912 227.474 190.328C227.186 190.712 227.042 191.144 227.042 191.624C227.042 192.456 227.522 193.08 228.482 193.496C229.442 193.912 231.01 194.36 233.186 194.84C235.714 195.384 237.666 196.008 239.042 196.712C240.418 197.384 241.362 198.168 241.874 199.064C242.418 199.928 242.69 201 242.69 202.28C242.69 203.624 242.258 204.856 241.394 205.976C240.562 207.064 239.33 207.944 237.698 208.616C236.066 209.256 234.05 209.576 231.65 209.576ZM259.328 209.576C257.248 209.576 255.312 209.096 253.52 208.136C251.728 207.144 250.272 205.736 249.152 203.912C248.032 202.056 247.472 199.832 247.472 197.24C247.472 194.616 248.032 192.392 249.152 190.568C250.272 188.712 251.728 187.304 253.52 186.344C255.312 185.352 257.248 184.856 259.328 184.856C261.408 184.856 263.344 185.352 265.136 186.344C266.928 187.304 268.384 188.712 269.504 190.568C270.624 192.392 271.184 194.616 271.184 197.24C271.184 199.832 270.624 202.056 269.504 203.912C268.384 205.736 266.928 207.144 265.136 208.136C263.344 209.096 261.408 209.576 259.328 209.576ZM259.328 205.064C260.608 205.064 261.712 204.744 262.64 204.104C263.568 203.464 264.272 202.552 264.752 201.368C265.232 200.184 265.472 198.808 265.472 197.24C265.472 195.672 265.232 194.296 264.752 193.112C264.272 191.928 263.568 191.016 262.64 190.376C261.712 189.704 260.608 189.368 259.328 189.368C258.048 189.368 256.944 189.704 256.016 190.376C255.12 191.016 254.416 191.928 253.904 193.112C253.424 194.296 253.184 195.672 253.184 197.24C253.184 198.808 253.424 200.184 253.904 201.368C254.416 202.552 255.12 203.464 256.016 204.104C256.944 204.744 258.048 205.064 259.328 205.064ZM283.981 209.576C281.229 209.576 279.229 208.744 277.981 207.08C276.733 205.416 276.109 203.064 276.109 200.024V185.432H281.629V199.304C281.629 201.192 281.949 202.584 282.589 203.48C283.261 204.376 284.413 204.824 286.045 204.824C287.133 204.824 288.125 204.568 289.021 204.056C289.949 203.512 290.925 202.6 291.949 201.32V185.432H297.469V209H292.957L292.525 205.256H292.333C291.213 206.536 289.981 207.576 288.637 208.376C287.293 209.176 285.741 209.576 283.981 209.576ZM306.81 209V185.432H311.37L311.85 190.76H311.994C313.178 188.84 314.634 187.384 316.362 186.392C318.122 185.368 320.01 184.856 322.026 184.856C322.986 184.856 323.818 184.936 324.522 185.096C325.226 185.256 325.914 185.496 326.586 185.816L325.434 190.472C324.666 190.216 323.978 190.04 323.37 189.944C322.794 189.816 322.058 189.752 321.162 189.752C319.562 189.752 317.994 190.216 316.458 191.144C314.954 192.072 313.594 193.688 312.378 195.992V209H306.81ZM344.903 209.576C342.439 209.576 340.215 209.096 338.231 208.136C336.279 207.144 334.727 205.736 333.575 203.912C332.455 202.056 331.895 199.832 331.895 197.24C331.895 194.616 332.503 192.392 333.719 190.568C334.967 188.712 336.615 187.304 338.663 186.344C340.711 185.352 342.919 184.856 345.287 184.856C347.207 184.856 348.903 185.176 350.375 185.816C351.847 186.424 353.063 187.208 354.023 188.168L351.383 191.624C350.455 190.888 349.511 190.328 348.551 189.944C347.623 189.56 346.631 189.368 345.575 189.368C344.007 189.368 342.615 189.704 341.399 190.376C340.215 191.016 339.287 191.928 338.615 193.112C337.943 194.296 337.607 195.672 337.607 197.24C337.607 198.808 337.927 200.184 338.567 201.368C339.239 202.552 340.151 203.464 341.303 204.104C342.487 204.744 343.863 205.064 345.431 205.064C346.775 205.064 348.007 204.808 349.127 204.296C350.247 203.784 351.255 203.176 352.151 202.472L354.455 206.024C353.111 207.176 351.607 208.056 349.943 208.664C348.279 209.272 346.599 209.576 344.903 209.576ZM372.052 209.576C369.652 209.576 367.476 209.096 365.524 208.136C363.572 207.144 362.02 205.736 360.868 203.912C359.716 202.056 359.14 199.816 359.14 197.192C359.14 194.632 359.716 192.44 360.868 190.616C362.02 188.76 363.524 187.336 365.38 186.344C367.236 185.352 369.22 184.856 371.332 184.856C373.668 184.856 375.636 185.336 377.236 186.296C378.868 187.256 380.1 188.584 380.932 190.28C381.796 191.944 382.228 193.864 382.228 196.04C382.228 196.584 382.196 197.112 382.132 197.624C382.1 198.104 382.052 198.504 381.988 198.824H363.124V194.888H378.436L377.38 196.136C377.38 193.8 376.852 192.056 375.796 190.904C374.772 189.72 373.332 189.128 371.476 189.128C370.164 189.128 368.98 189.432 367.924 190.04C366.9 190.648 366.084 191.56 365.476 192.776C364.868 193.96 364.564 195.432 364.564 197.192C364.564 199.016 364.9 200.52 365.572 201.704C366.276 202.888 367.236 203.784 368.452 204.392C369.7 205 371.14 205.304 372.772 205.304C374.02 205.304 375.172 205.128 376.228 204.776C377.284 204.424 378.34 203.944 379.396 203.336L381.268 206.792C380.02 207.592 378.612 208.264 377.044 208.808C375.476 209.32 373.812 209.576 372.052 209.576Z" fill="#231F20"/>
<path d="M91.728 267.416C89.552 267.416 87.664 267.176 86.064 266.696C84.464 266.248 83.216 265.56 82.32 264.632C81.424 263.704 80.976 262.536 80.976 261.128C80.976 260.2 81.296 259.304 81.936 258.44C82.576 257.576 83.504 256.824 84.72 256.184V255.992C84.112 255.608 83.552 255.112 83.04 254.504C82.56 253.864 82.32 253.048 82.32 252.056C82.32 251.288 82.576 250.504 83.088 249.704C83.6 248.904 84.288 248.216 85.152 247.64V247.448C84.32 246.84 83.6 246.024 82.992 245C82.416 243.944 82.128 242.728 82.128 241.352C82.128 239.528 82.576 237.992 83.472 236.744C84.368 235.464 85.552 234.504 87.024 233.864C88.496 233.192 90.096 232.856 91.824 232.856C93.232 232.856 94.464 233.048 95.52 233.432H105.168V237.656H99.744C100.16 238.104 100.512 238.68 100.8 239.384C101.12 240.056 101.28 240.776 101.28 241.544C101.28 243.272 100.848 244.744 99.984 245.96C99.152 247.144 98.032 248.04 96.624 248.648C95.216 249.256 93.616 249.56 91.824 249.56C91.28 249.56 90.688 249.512 90.048 249.416C89.44 249.288 88.832 249.112 88.224 248.888C87.744 249.176 87.376 249.496 87.12 249.848C86.896 250.2 86.784 250.616 86.784 251.096C86.784 251.832 87.152 252.392 87.888 252.776C88.656 253.128 89.776 253.304 91.248 253.304H96.048C99.12 253.304 101.424 253.752 102.96 254.648C104.528 255.512 105.312 256.984 105.312 259.064C105.312 260.6 104.752 262.008 103.632 263.288C102.544 264.568 100.976 265.576 98.928 266.312C96.912 267.048 94.512 267.416 91.728 267.416ZM91.824 246.056C92.656 246.056 93.408 245.88 94.08 245.528C94.752 245.144 95.28 244.6 95.664 243.896C96.08 243.192 96.288 242.344 96.288 241.352C96.288 240.392 96.08 239.576 95.664 238.904C95.28 238.2 94.752 237.656 94.08 237.272C93.408 236.888 92.656 236.696 91.824 236.696C91.024 236.696 90.288 236.888 89.616 237.272C88.944 237.656 88.4 238.2 87.984 238.904C87.568 239.576 87.36 240.392 87.36 241.352C87.36 242.344 87.568 243.192 87.984 243.896C88.4 244.6 88.944 245.144 89.616 245.528C90.288 245.88 91.024 246.056 91.824 246.056ZM92.4 263.768C93.936 263.768 95.264 263.592 96.384 263.24C97.536 262.888 98.416 262.424 99.024 261.848C99.664 261.272 99.984 260.648 99.984 259.976C99.984 259.048 99.584 258.424 98.784 258.104C98.016 257.816 96.832 257.672 95.232 257.672H91.488C90.72 257.672 90.048 257.64 89.472 257.576C88.896 257.512 88.368 257.432 87.888 257.336C87.056 257.816 86.464 258.312 86.112 258.824C85.76 259.336 85.584 259.864 85.584 260.408C85.584 261.464 86.176 262.28 87.36 262.856C88.544 263.464 90.224 263.768 92.4 263.768ZM121.661 257.576C119.261 257.576 117.085 257.096 115.133 256.136C113.181 255.144 111.629 253.736 110.477 251.912C109.325 250.056 108.749 247.816 108.749 245.192C108.749 242.632 109.325 240.44 110.477 238.616C111.629 236.76 113.133 235.336 114.989 234.344C116.845 233.352 118.829 232.856 120.941 232.856C123.277 232.856 125.245 233.336 126.845 234.296C128.477 235.256 129.709 236.584 130.541 238.28C131.405 239.944 131.837 241.864 131.837 244.04C131.837 244.584 131.805 245.112 131.741 245.624C131.709 246.104 131.661 246.504 131.597 246.824H112.733V242.888H128.045L126.989 244.136C126.989 241.8 126.461 240.056 125.405 238.904C124.381 237.72 122.941 237.128 121.085 237.128C119.773 237.128 118.589 237.432 117.533 238.04C116.509 238.648 115.693 239.56 115.085 240.776C114.477 241.96 114.173 243.432 114.173 245.192C114.173 247.016 114.509 248.52 115.181 249.704C115.885 250.888 116.845 251.784 118.061 252.392C119.309 253 120.749 253.304 122.381 253.304C123.629 253.304 124.781 253.128 125.837 252.776C126.893 252.424 127.949 251.944 129.005 251.336L130.877 254.792C129.629 255.592 128.221 256.264 126.653 256.808C125.085 257.32 123.421 257.576 121.661 257.576ZM148.043 257.576C145.963 257.576 144.027 257.096 142.235 256.136C140.443 255.144 138.987 253.736 137.867 251.912C136.747 250.056 136.187 247.832 136.187 245.24C136.187 242.616 136.747 240.392 137.867 238.568C138.987 236.712 140.443 235.304 142.235 234.344C144.027 233.352 145.963 232.856 148.043 232.856C150.123 232.856 152.059 233.352 153.851 234.344C155.643 235.304 157.099 236.712 158.219 238.568C159.339 240.392 159.899 242.616 159.899 245.24C159.899 247.832 159.339 250.056 158.219 251.912C157.099 253.736 155.643 255.144 153.851 256.136C152.059 257.096 150.123 257.576 148.043 257.576ZM148.043 253.064C149.323 253.064 150.427 252.744 151.355 252.104C152.283 251.464 152.987 250.552 153.467 249.368C153.947 248.184 154.187 246.808 154.187 245.24C154.187 243.672 153.947 242.296 153.467 241.112C152.987 239.928 152.283 239.016 151.355 238.376C150.427 237.704 149.323 237.368 148.043 237.368C146.763 237.368 145.659 237.704 144.731 238.376C143.835 239.016 143.131 239.928 142.619 241.112C142.139 242.296 141.899 243.672 141.899 245.24C141.899 246.808 142.139 248.184 142.619 249.368C143.131 250.552 143.835 251.464 144.731 252.104C145.659 252.744 146.763 253.064 148.043 253.064ZM176.008 257.576C173.8 257.576 171.688 257.224 169.672 256.52C167.656 255.784 165.912 254.92 164.44 253.928L166.84 250.424C168.248 251.352 169.768 252.088 171.4 252.632C173.032 253.144 174.808 253.4 176.728 253.4C178.36 253.4 179.56 253.128 180.328 252.584C181.128 252.008 181.528 251.336 181.528 250.568C181.528 250.184 181.432 249.832 181.24 249.512C181.08 249.192 180.776 248.904 180.328 248.648C179.88 248.36 179.224 248.088 178.36 247.832C177.496 247.576 176.376 247.304 175 247.016C171.864 246.344 169.56 245.432 168.088 244.28C166.616 243.128 165.88 241.672 165.88 239.912C165.88 237.832 166.776 236.136 168.568 234.824C170.392 233.512 172.952 232.856 176.248 232.856C178.2 232.856 180.024 233.176 181.72 233.816C183.448 234.456 184.904 235.176 186.088 235.976L183.544 239.384C182.424 238.616 181.192 238.04 179.848 237.656C178.504 237.24 177.144 237.032 175.768 237.032C174.712 237.032 173.864 237.144 173.224 237.368C172.616 237.592 172.152 237.912 171.832 238.328C171.544 238.712 171.4 239.144 171.4 239.624C171.4 240.456 171.88 241.08 172.84 241.496C173.8 241.912 175.368 242.36 177.544 242.84C180.072 243.384 182.024 244.008 183.4 244.712C184.776 245.384 185.72 246.168 186.232 247.064C186.776 247.928 187.048 249 187.048 250.28C187.048 251.624 186.616 252.856 185.752 253.976C184.92 255.064 183.688 255.944 182.056 256.616C180.424 257.256 178.408 257.576 176.008 257.576ZM193.221 266.312V233.432H197.781L198.213 236.12H198.357C199.381 235.16 200.549 234.376 201.861 233.768C203.205 233.16 204.549 232.856 205.893 232.856C207.973 232.856 209.717 233.352 211.125 234.344C212.533 235.336 213.621 236.728 214.389 238.52C215.157 240.312 215.541 242.424 215.541 244.856C215.541 247.544 215.045 249.832 214.053 251.72C213.061 253.608 211.765 255.064 210.165 256.088C208.597 257.08 206.901 257.576 205.077 257.576C204.021 257.576 202.917 257.336 201.765 256.856C200.645 256.376 199.605 255.688 198.645 254.792H198.501L198.789 258.92V266.312H193.221ZM203.925 253.016C205.045 253.016 206.053 252.712 206.949 252.104C207.845 251.496 208.549 250.6 209.061 249.416C209.573 248.2 209.829 246.696 209.829 244.904C209.829 243.336 209.637 241.992 209.253 240.872C208.869 239.752 208.277 238.904 207.477 238.328C206.709 237.72 205.669 237.416 204.357 237.416C203.461 237.416 202.549 237.64 201.621 238.088C200.693 238.536 199.749 239.256 198.789 240.248V250.856C199.653 251.624 200.549 252.184 201.477 252.536C202.405 252.856 203.221 253.016 203.925 253.016ZM228.386 257.576C226.85 257.576 225.49 257.288 224.306 256.712C223.122 256.104 222.194 255.288 221.522 254.264C220.85 253.24 220.514 252.04 220.514 250.664C220.514 248.04 221.762 246.04 224.258 244.664C226.786 243.256 230.962 242.344 236.786 241.928C236.722 241.064 236.482 240.28 236.066 239.576C235.682 238.872 235.09 238.328 234.29 237.944C233.49 237.528 232.45 237.32 231.17 237.32C230.274 237.32 229.394 237.432 228.53 237.656C227.666 237.88 226.802 238.184 225.938 238.568C225.106 238.952 224.274 239.368 223.442 239.816L221.426 236.12C222.386 235.544 223.442 235.016 224.594 234.536C225.746 234.024 226.962 233.624 228.242 233.336C229.522 233.016 230.834 232.856 232.178 232.856C234.386 232.856 236.226 233.256 237.698 234.056C239.202 234.824 240.338 235.976 241.106 237.512C241.906 239.016 242.306 240.856 242.306 243.032V257H237.794L237.362 254.072H237.218C235.97 255.032 234.578 255.864 233.042 256.568C231.538 257.24 229.986 257.576 228.386 257.576ZM230.066 253.256C231.25 253.256 232.386 253 233.474 252.488C234.594 251.944 235.698 251.24 236.786 250.376V245.384C233.97 245.576 231.762 245.896 230.162 246.344C228.562 246.76 227.442 247.304 226.802 247.976C226.162 248.648 225.842 249.4 225.842 250.232C225.842 250.936 226.034 251.512 226.418 251.96C226.802 252.408 227.298 252.744 227.906 252.968C228.546 253.16 229.266 253.256 230.066 253.256ZM263.696 257.576C261.296 257.576 259.392 257.16 257.984 256.328C256.576 255.464 255.568 254.28 254.96 252.776C254.352 251.272 254.048 249.528 254.048 247.544V237.8H247.76V233.672L254.288 233.432L255.008 226.04H259.568V233.432H270.32V237.8H259.568V247.496C259.568 248.776 259.744 249.848 260.096 250.712C260.448 251.544 261.024 252.168 261.824 252.584C262.624 252.968 263.68 253.16 264.992 253.16C266.016 253.16 266.944 253.08 267.776 252.92C268.608 252.76 269.408 252.536 270.176 252.248L271.232 256.232C270.176 256.584 269.04 256.888 267.824 257.144C266.608 257.432 265.232 257.576 263.696 257.576ZM287.005 257V237.8H276.781V233.432H292.525V257H287.005ZM289.357 229.112C288.237 229.112 287.293 228.776 286.525 228.104C285.789 227.432 285.421 226.536 285.421 225.416C285.421 224.296 285.789 223.4 286.525 222.728C287.293 222.024 288.237 221.672 289.357 221.672C290.509 221.672 291.453 222.024 292.189 222.728C292.925 223.4 293.293 224.296 293.293 225.416C293.293 226.536 292.925 227.432 292.189 228.104C291.453 228.776 290.509 229.112 289.357 229.112ZM311.85 257.576C310.314 257.576 308.954 257.288 307.77 256.712C306.586 256.104 305.658 255.288 304.986 254.264C304.314 253.24 303.978 252.04 303.978 250.664C303.978 248.04 305.226 246.04 307.722 244.664C310.25 243.256 314.426 242.344 320.25 241.928C320.186 241.064 319.946 240.28 319.53 239.576C319.146 238.872 318.554 238.328 317.754 237.944C316.954 237.528 315.914 237.32 314.634 237.32C313.738 237.32 312.858 237.432 311.994 237.656C311.13 237.88 310.266 238.184 309.402 238.568C308.57 238.952 307.738 239.368 306.906 239.816L304.89 236.12C305.85 235.544 306.906 235.016 308.058 234.536C309.21 234.024 310.426 233.624 311.706 233.336C312.986 233.016 314.298 232.856 315.642 232.856C317.85 232.856 319.69 233.256 321.162 234.056C322.666 234.824 323.802 235.976 324.57 237.512C325.37 239.016 325.77 240.856 325.77 243.032V257H321.258L320.826 254.072H320.682C319.434 255.032 318.042 255.864 316.506 256.568C315.002 257.24 313.45 257.576 311.85 257.576ZM313.53 253.256C314.714 253.256 315.85 253 316.938 252.488C318.058 251.944 319.162 251.24 320.25 250.376V245.384C317.434 245.576 315.226 245.896 313.626 246.344C312.026 246.76 310.906 247.304 310.266 247.976C309.626 248.648 309.306 249.4 309.306 250.232C309.306 250.936 309.498 251.512 309.882 251.96C310.266 252.408 310.762 252.744 311.37 252.968C312.01 253.16 312.73 253.256 313.53 253.256ZM347.591 257.576C344.871 257.576 342.791 256.776 341.351 255.176C339.943 253.544 339.239 251.288 339.239 248.408V227.48H331.559V223.112H344.759V248.696C344.759 250.296 345.159 251.432 345.959 252.104C346.791 252.744 347.799 253.064 348.983 253.064C349.591 253.064 350.215 253 350.855 252.872C351.495 252.712 352.215 252.472 353.015 252.152L354.311 256.232C353.191 256.616 352.135 256.936 351.143 257.192C350.183 257.448 348.999 257.576 347.591 257.576ZM92.544 305.576C90.336 305.576 88.224 305.224 86.208 304.52C84.192 303.784 82.448 302.92 80.976 301.928L83.376 298.424C84.784 299.352 86.304 300.088 87.936 300.632C89.568 301.144 91.344 301.4 93.264 301.4C94.896 301.4 96.096 301.128 96.864 300.584C97.664 300.008 98.064 299.336 98.064 298.568C98.064 298.184 97.968 297.832 97.776 297.512C97.616 297.192 97.312 296.904 96.864 296.648C96.416 296.36 95.76 296.088 94.896 295.832C94.032 295.576 92.912 295.304 91.536 295.016C88.4 294.344 86.096 293.432 84.624 292.28C83.152 291.128 82.416 289.672 82.416 287.912C82.416 285.832 83.312 284.136 85.104 282.824C86.928 281.512 89.488 280.856 92.784 280.856C94.736 280.856 96.56 281.176 98.256 281.816C99.984 282.456 101.44 283.176 102.624 283.976L100.08 287.384C98.96 286.616 97.728 286.04 96.384 285.656C95.04 285.24 93.68 285.032 92.304 285.032C91.248 285.032 90.4 285.144 89.76 285.368C89.152 285.592 88.688 285.912 88.368 286.328C88.08 286.712 87.936 287.144 87.936 287.624C87.936 288.456 88.416 289.08 89.376 289.496C90.336 289.912 91.904 290.36 94.08 290.84C96.608 291.384 98.56 292.008 99.936 292.712C101.312 293.384 102.256 294.168 102.768 295.064C103.312 295.928 103.584 297 103.584 298.28C103.584 299.624 103.152 300.856 102.288 301.976C101.456 303.064 100.224 303.944 98.592 304.616C96.96 305.256 94.944 305.576 92.544 305.576ZM120.221 305.576C118.141 305.576 116.205 305.096 114.413 304.136C112.621 303.144 111.165 301.736 110.045 299.912C108.925 298.056 108.365 295.832 108.365 293.24C108.365 290.616 108.925 288.392 110.045 286.568C111.165 284.712 112.621 283.304 114.413 282.344C116.205 281.352 118.141 280.856 120.221 280.856C122.301 280.856 124.237 281.352 126.029 282.344C127.821 283.304 129.277 284.712 130.397 286.568C131.517 288.392 132.077 290.616 132.077 293.24C132.077 295.832 131.517 298.056 130.397 299.912C129.277 301.736 127.821 303.144 126.029 304.136C124.237 305.096 122.301 305.576 120.221 305.576ZM120.221 301.064C121.501 301.064 122.605 300.744 123.533 300.104C124.461 299.464 125.165 298.552 125.645 297.368C126.125 296.184 126.365 294.808 126.365 293.24C126.365 291.672 126.125 290.296 125.645 289.112C125.165 287.928 124.461 287.016 123.533 286.376C122.605 285.704 121.501 285.368 120.221 285.368C118.941 285.368 117.837 285.704 116.909 286.376C116.013 287.016 115.309 287.928 114.797 289.112C114.317 290.296 114.077 291.672 114.077 293.24C114.077 294.808 114.317 296.184 114.797 297.368C115.309 298.552 116.013 299.464 116.909 300.104C117.837 300.744 118.941 301.064 120.221 301.064ZM152.843 305.576C150.123 305.576 148.043 304.776 146.603 303.176C145.195 301.544 144.491 299.288 144.491 296.408V275.48H136.811V271.112H150.011V296.696C150.011 298.296 150.411 299.432 151.211 300.104C152.043 300.744 153.051 301.064 154.235 301.064C154.843 301.064 155.467 301 156.107 300.872C156.747 300.712 157.467 300.472 158.267 300.152L159.563 304.232C158.443 304.616 157.387 304.936 156.395 305.192C155.435 305.448 154.251 305.576 152.843 305.576ZM172.696 305.576C169.944 305.576 167.944 304.744 166.696 303.08C165.448 301.416 164.824 299.064 164.824 296.024V281.432H170.344V295.304C170.344 297.192 170.664 298.584 171.304 299.48C171.976 300.376 173.128 300.824 174.76 300.824C175.848 300.824 176.84 300.568 177.736 300.056C178.664 299.512 179.64 298.6 180.664 297.32V281.432H186.184V305H181.672L181.24 301.256H181.048C179.928 302.536 178.696 303.576 177.352 304.376C176.008 305.176 174.456 305.576 172.696 305.576ZM208.053 305.576C205.653 305.576 203.749 305.16 202.341 304.328C200.933 303.464 199.925 302.28 199.317 300.776C198.709 299.272 198.405 297.528 198.405 295.544V285.8H192.117V281.672L198.645 281.432L199.365 274.04H203.925V281.432H214.677V285.8H203.925V295.496C203.925 296.776 204.101 297.848 204.453 298.712C204.805 299.544 205.381 300.168 206.181 300.584C206.981 300.968 208.037 301.16 209.349 301.16C210.373 301.16 211.301 301.08 212.133 300.92C212.965 300.76 213.765 300.536 214.533 300.248L215.589 304.232C214.533 304.584 213.397 304.888 212.181 305.144C210.965 305.432 209.589 305.576 208.053 305.576ZM231.362 305V285.8H221.138V281.432H236.882V305H231.362ZM233.714 277.112C232.594 277.112 231.65 276.776 230.882 276.104C230.146 275.432 229.778 274.536 229.778 273.416C229.778 272.296 230.146 271.4 230.882 270.728C231.65 270.024 232.594 269.672 233.714 269.672C234.866 269.672 235.81 270.024 236.546 270.728C237.282 271.4 237.65 272.296 237.65 273.416C237.65 274.536 237.282 275.432 236.546 276.104C235.81 276.776 234.866 277.112 233.714 277.112ZM259.328 305.576C257.248 305.576 255.312 305.096 253.52 304.136C251.728 303.144 250.272 301.736 249.152 299.912C248.032 298.056 247.472 295.832 247.472 293.24C247.472 290.616 248.032 288.392 249.152 286.568C250.272 284.712 251.728 283.304 253.52 282.344C255.312 281.352 257.248 280.856 259.328 280.856C261.408 280.856 263.344 281.352 265.136 282.344C266.928 283.304 268.384 284.712 269.504 286.568C270.624 288.392 271.184 290.616 271.184 293.24C271.184 295.832 270.624 298.056 269.504 299.912C268.384 301.736 266.928 303.144 265.136 304.136C263.344 305.096 261.408 305.576 259.328 305.576ZM259.328 301.064C260.608 301.064 261.712 300.744 262.64 300.104C263.568 299.464 264.272 298.552 264.752 297.368C265.232 296.184 265.472 294.808 265.472 293.24C265.472 291.672 265.232 290.296 264.752 289.112C264.272 287.928 263.568 287.016 262.64 286.376C261.712 285.704 260.608 285.368 259.328 285.368C258.048 285.368 256.944 285.704 256.016 286.376C255.12 287.016 254.416 287.928 253.904 289.112C253.424 290.296 253.184 291.672 253.184 293.24C253.184 294.808 253.424 296.184 253.904 297.368C254.416 298.552 255.12 299.464 256.016 300.104C256.944 300.744 258.048 301.064 259.328 301.064ZM276.685 305V281.432H281.245L281.677 284.984H281.869C282.989 283.832 284.221 282.856 285.565 282.056C286.941 281.256 288.541 280.856 290.365 280.856C293.085 280.856 295.085 281.688 296.365 283.352C297.645 285.016 298.285 287.368 298.285 290.408V305H292.717V291.128C292.717 289.24 292.381 287.848 291.709 286.952C291.037 286.056 289.901 285.608 288.301 285.608C287.149 285.608 286.125 285.88 285.229 286.424C284.333 286.968 283.341 287.8 282.253 288.92V305H276.685ZM315.114 305.576C312.906 305.576 310.794 305.224 308.778 304.52C306.762 303.784 305.018 302.92 303.546 301.928L305.946 298.424C307.354 299.352 308.874 300.088 310.506 300.632C312.138 301.144 313.914 301.4 315.834 301.4C317.466 301.4 318.666 301.128 319.434 300.584C320.234 300.008 320.634 299.336 320.634 298.568C320.634 298.184 320.538 297.832 320.346 297.512C320.186 297.192 319.882 296.904 319.434 296.648C318.986 296.36 318.33 296.088 317.466 295.832C316.602 295.576 315.482 295.304 314.106 295.016C310.97 294.344 308.666 293.432 307.194 292.28C305.722 291.128 304.986 289.672 304.986 287.912C304.986 285.832 305.882 284.136 307.674 282.824C309.498 281.512 312.058 280.856 315.354 280.856C317.306 280.856 319.13 281.176 320.826 281.816C322.554 282.456 324.01 283.176 325.194 283.976L322.65 287.384C321.53 286.616 320.298 286.04 318.954 285.656C317.61 285.24 316.25 285.032 314.874 285.032C313.818 285.032 312.97 285.144 312.33 285.368C311.722 285.592 311.258 285.912 310.938 286.328C310.65 286.712 310.506 287.144 310.506 287.624C310.506 288.456 310.986 289.08 311.946 289.496C312.906 289.912 314.474 290.36 316.65 290.84C319.178 291.384 321.13 292.008 322.506 292.712C323.882 293.384 324.826 294.168 325.338 295.064C325.882 295.928 326.154 297 326.154 298.28C326.154 299.624 325.722 300.856 324.858 301.976C324.026 303.064 322.794 303.944 321.162 304.616C319.53 305.256 317.514 305.576 315.114 305.576ZM342.791 305.576C341.447 305.576 340.311 305.112 339.383 304.184C338.487 303.256 338.039 302.104 338.039 300.728C338.039 299.32 338.487 298.168 339.383 297.272C340.311 296.344 341.447 295.88 342.791 295.88C344.167 295.88 345.303 296.344 346.199 297.272C347.095 298.168 347.543 299.32 347.543 300.728C347.543 302.104 347.095 303.256 346.199 304.184C345.303 305.112 344.167 305.576 342.791 305.576Z" fill="#176FC1"/>
</g>
<defs>
<filter id="filter0_f_2899_111" x="560" y="75" width="686" height="686" filterUnits="userSpaceOnUse" color-interpolation-filters="sRGB">
<feFlood flood-opacity="0" result="BackgroundImageFix"/>
<feBlend mode="normal" in="SourceGraphic" in2="BackgroundImageFix" result="shape"/>
<feGaussianBlur stdDeviation="40" result="effect1_foregroundBlur_2899_111"/>
</filter>
<clipPath id="clip0_2899_111">
<rect width="1280" height="480" fill="white"/>
</clipPath>
</defs>
</svg>
